<svg xmlns="http://www.w3.org/2000/svg" width="32" height="32" viewBox="0 0 32 32" fill="none">
<path d="M5.33335 24H8.00002V29.4413L14.8014 24H21.3334C22.804 24 24 22.804 24 21.3333V10.6667C24 9.196 22.804 8 21.3334 8H5.33335C3.86269 8 2.66669 9.196 2.66669 10.6667V21.3333C2.66669 22.804 3.86269 24 5.33335 24Z" fill="white"/>
<path d="M26.6667 2.66602H10.6667C9.196 2.66602 8 3.86202 8 5.33268H24C25.4707 5.33268 26.6667 6.52868 26.6667 7.99935V18.666C28.1373 18.666 29.3333 17.47 29.3333 15.9993V5.33268C29.3333 3.86202 28.1373 2.66602 26.6667 2.66602Z" fill="white"/>
</svg>