<svg xmlns="http://www.w3.org/2000/svg" width="20" height="20" viewBox="0 0 20 20" fill="none">
<path d="M13.9583 3.33331C14.4334 3.33325 14.8908 3.51356 15.2381 3.83779C15.5854 4.16202 15.7966 4.60599 15.8291 5.07998L15.8333 5.20831V14.5833C15.8331 14.6874 15.8719 14.7879 15.942 14.8648C16.0122 14.9417 16.1086 14.9896 16.2123 14.999C16.316 15.0085 16.4195 14.9787 16.5023 14.9156C16.5852 14.8526 16.6414 14.7608 16.66 14.6583L16.6666 14.5833V5.84498C17.1016 5.89361 17.5058 6.09286 17.8093 6.40822C18.1128 6.72357 18.2964 7.13515 18.3283 7.57165L18.3333 7.70831V13.9583C18.3333 14.6501 18.0687 15.3157 17.5936 15.8185C17.1185 16.3213 16.469 16.6233 15.7783 16.6625L15.625 16.6666H4.37496C3.68318 16.6667 3.0176 16.402 2.51477 15.9269C2.01193 15.4518 1.70996 14.8023 1.67079 14.1116L1.66663 13.9583V5.20831C1.66657 4.73321 1.84687 4.2758 2.1711 3.92852C2.49533 3.58124 2.9393 3.37 3.41329 3.33748L3.54163 3.33331H13.9583ZM7.70662 9.16665H4.78996C4.6242 9.16665 4.46523 9.2325 4.34802 9.34971C4.23081 9.46692 4.16496 9.62589 4.16496 9.79165V12.7083C4.16496 13.0533 4.44496 13.3333 4.78996 13.3333H7.70662C7.87239 13.3333 8.03136 13.2675 8.14857 13.1503C8.26578 13.033 8.33162 12.8741 8.33162 12.7083V9.79165C8.33162 9.62589 8.26578 9.46692 8.14857 9.34971C8.03136 9.2325 7.87239 9.16665 7.70662 9.16665ZM12.71 12.0833H10.6283L10.5433 12.0891C10.3864 12.1107 10.2436 12.1911 10.1437 12.3139C10.0437 12.4367 9.99414 12.5929 10.0049 12.7509C10.0157 12.9089 10.0861 13.0569 10.2018 13.165C10.3175 13.2731 10.4699 13.3333 10.6283 13.3333H12.71L12.795 13.3275C12.9518 13.3059 13.0947 13.2256 13.1946 13.1027C13.2945 12.9799 13.3441 12.8237 13.3333 12.6657C13.3225 12.5077 13.2522 12.3597 13.1365 12.2516C13.0207 12.1435 12.8683 12.0834 12.71 12.0833ZM7.08162 10.4166V12.0833H5.41496V10.4166H7.08162ZM12.7083 9.16665L10.6266 9.17081L10.5416 9.17581C10.3832 9.19586 10.2385 9.27577 10.1372 9.39914C10.0358 9.52251 9.98552 9.67999 9.99661 9.83927C10.0077 9.99855 10.0793 10.1475 10.1968 10.2557C10.3142 10.3638 10.4686 10.4229 10.6283 10.4208L12.7108 10.4166L12.795 10.4108C12.9519 10.3892 13.0948 10.3088 13.1947 10.1859C13.2947 10.063 13.3442 9.90668 13.3333 9.74863C13.3224 9.59058 13.2519 9.44257 13.136 9.33453C13.0201 9.22649 12.8675 9.16648 12.7091 9.16665H12.7083ZM12.7091 6.25331H4.78996L4.70496 6.25915C4.54808 6.28073 4.40525 6.36106 4.30532 6.4839C4.20539 6.60674 4.15581 6.76293 4.1666 6.92091C4.1774 7.0789 4.24776 7.2269 4.36347 7.335C4.47917 7.44311 4.63161 7.50326 4.78996 7.50331H12.71L12.795 7.49831C12.9532 7.47824 13.0977 7.39845 13.199 7.27526C13.3003 7.15208 13.3507 6.99483 13.3399 6.83571C13.329 6.67659 13.2577 6.52765 13.1406 6.41937C13.0235 6.3111 12.8686 6.25169 12.7091 6.25331Z" fill="white"/>
</svg>