<svg xmlns="http://www.w3.org/2000/svg" width="32" height="32" viewBox="0 0 32 32" fill="none">
<path d="M26.6667 29.3327H8.66667C7.42899 29.3327 6.24201 28.841 5.36684 27.9658C4.49167 27.0907 4 25.9037 4 24.666V6.66602C4 5.60515 4.42143 4.58773 5.17157 3.83759C5.92172 3.08744 6.93913 2.66602 8 2.66602H26.6667C27.0203 2.66602 27.3594 2.80649 27.6095 3.05654C27.8595 3.30659 28 3.64573 28 3.99935V27.9993C28 28.353 27.8595 28.6921 27.6095 28.9422C27.3594 29.1922 27.0203 29.3327 26.6667 29.3327ZM25.3333 26.666V22.666H8.66667C8.13623 22.666 7.62753 22.8767 7.25245 23.2518C6.87738 23.6269 6.66667 24.1356 6.66667 24.666C6.66667 25.1964 6.87738 25.7052 7.25245 26.0802C7.62753 26.4553 8.13623 26.666 8.66667 26.666H25.3333Z" fill="#F45F17"/>
</svg>