<svg xmlns="http://www.w3.org/2000/svg" width="24" height="25" viewBox="0 0 24 25" fill="none">
<g clip-path="url(#clip0_316_5650)">
<mask id="mask0_316_5650" style="mask-type:luminance" maskUnits="userSpaceOnUse" x="0" y="0" width="24" height="25">
<path d="M18.343 8.0855C18.9806 8.99884 19.4121 10.0399 19.6075 11.1365H22V13.8635H19.6075C19.4121 14.9601 18.9806 16.0012 18.343 16.9145L20.0355 18.607L18.107 20.5355L16.4145 18.843C15.5012 19.4806 14.4601 19.9121 13.3635 20.1075V22.5H10.6365V20.1075C9.53988 19.9121 8.49884 19.4806 7.5855 18.843L5.893 20.5355L3.9645 18.607L5.657 16.9145C5.01937 16.0012 4.58791 14.9601 4.3925 13.8635H2V11.1365H4.3925C4.58791 10.0399 5.01937 8.99884 5.657 8.0855L3.9645 6.393L5.893 4.4645L7.5855 6.157C8.49884 5.51937 9.53988 5.08791 10.6365 4.8925V2.5H13.3635V4.8925C14.4601 5.08791 15.5012 5.51937 16.4145 6.157L18.107 4.4645L20.0355 6.393L18.343 8.0855Z" fill="white" stroke="white" stroke-width="4" stroke-linejoin="round"/>
<path d="M12 15C12.663 15 13.2989 14.7366 13.7678 14.2678C14.2366 13.7989 14.5 13.163 14.5 12.5C14.5 11.837 14.2366 11.2011 13.7678 10.7322C13.2989 10.2634 12.663 10 12 10C11.337 10 10.7011 10.2634 10.2322 10.7322C9.76339 11.2011 9.5 11.837 9.5 12.5C9.5 13.163 9.76339 13.7989 10.2322 14.2678C10.7011 14.7366 11.337 15 12 15Z" fill="black" stroke="black" stroke-width="4" stroke-linejoin="round"/>
</mask>
<g mask="url(#mask0_316_5650)">
<path d="M0 0.5H24V24.5H0V0.5Z" fill="white"/>
</g>
</g>
<defs>
<clipPath id="clip0_316_5650">
<rect width="24" height="24" fill="white" transform="translate(0 0.5)"/>
</clipPath>
</defs>
</svg>